<svg xmlns="http://www.w3.org/2000/svg" width="145" height="50" viewBox="0 0 145 50">
  <g fill="none" fill-rule="evenodd" transform="translate(1 1)">
    <path fill="#333" stroke="#737373" d="M133.823158,48 L8.91087719,48 C2.19368421,48 0.13754386,45.9985965 0.13754386,39.2814035 L0.13754386,8.96561404 C0.13754386,2.24842105 2.19368421,0.13754386 8.91087719,0.13754386 L133.823158,0.13754386 C140.540351,0.13754386 142.596491,2.24280702 142.596491,8.96561404 L142.596491,39.2814035 C142.596491,45.9985965 140.540351,48 133.823158,48 Z"/>
    <path fill="#00D4FF" d="M11.2140351,9.89894737 C10.8857853,10.0109427 10.6655486,10.3198388 10.6666667,10.6666667 L10.6666667,37.4414035 C10.6656825,37.7846175 10.8818865,38.0909065 11.205614,38.2049123 L25.4287719,24.0491228 L11.2140351,9.89894737 Z"/>
    <path fill="#00F076" d="M29.4357895,20.0589474 L11.8849123,9.96491228 C11.6812791,9.84657811 11.4358487,9.8239862 11.2140351,9.90315789 L25.4301754,24.0519298 L29.4357895,20.0589474 Z"/>
    <path fill="#F53349" d="M11.8849123,38.1431579 L29.442807,28.0378947 L25.4287719,24.0435088 L11.205614,38.2035088 C11.4297105,38.2857461 11.6788237,38.2636142 11.8849123,38.1431579 Z"/>
    <path fill="#FFC600" d="M29.442807,28.0421053 L35.1522807,24.7564912 C35.4017617,24.6108139 35.555143,24.3436359 35.555143,24.0547368 C35.555143,23.7658378 35.4017617,23.4986597 35.1522807,23.3529825 L29.4357895,20.0645614 L25.4287719,24.0533333 L29.442807,28.0421053 Z"/>
    <path fill="#FFF" d="M43.7894737,14.3242105 L47.114386,14.3242105 C47.1362142,14.4166741 47.1521527,14.5104298 47.1621053,14.6049123 C47.1743989,14.7116037 47.180491,14.8189186 47.1803509,14.9263158 C47.1829657,15.3448469 47.1156048,15.7608714 46.9810526,16.157193 C46.8489555,16.5421399 46.6359989,16.8943559 46.3564912,17.1901754 C46.0506799,17.5140304 45.6794039,17.7690435 45.2673684,17.9382456 C44.8069703,18.1219852 44.3145801,18.2121614 43.8189474,18.2035088 C43.3420236,18.206425 42.8691068,18.1163229 42.4266667,17.9382456 C42.0027979,17.7694356 41.6164543,17.5185508 41.2898246,17.2 C40.9638203,16.8788126 40.7031127,16.4975219 40.5221053,16.077193 C40.1431531,15.1711266 40.1431531,14.1509787 40.5221053,13.2449123 C40.7031751,12.8246177 40.9638749,12.4433383 41.2898246,12.1221053 C41.6165005,11.8036123 42.0028319,11.5527354 42.4266667,11.3838596 C43.348747,11.0235439 44.3738123,11.0300729 45.2912281,11.4021053 C45.7128624,11.583809 46.0919371,11.8515036 46.4042105,12.1880702 L45.522807,13.0498246 C44.8467692,12.3621668 43.8257291,12.144043 42.9277193,12.4954386 C42.6558395,12.6018974 42.4077776,12.7612295 42.1978947,12.9642105 C41.9849824,13.1733037 41.8160534,13.4228796 41.7010526,13.6982456 C41.4548453,14.3155369 41.4548453,15.0037613 41.7010526,15.6210526 C41.8167566,15.8974201 41.9877433,16.1472135 42.2035088,16.3550877 C42.4154069,16.5575516 42.664733,16.7167771 42.9375439,16.8238596 C43.5188078,17.0420039 44.1588519,17.0454878 44.7424561,16.8336842 C44.9779923,16.7384379 45.1947029,16.6020433 45.3824561,16.4308772 C45.5161014,16.3077353 45.6268251,16.1618462 45.7094737,16 C45.8049695,15.8156682 45.8766548,15.6199485 45.922807,15.4175439 L43.7894737,15.4175439 L43.7894737,14.3242105 Z"/>
    <polygon fill="#FFF" points="49.608 12.477 49.608 14.049 52.327 14.049 52.327 15.262 49.608 15.262 49.608 16.834 52.632 16.834 52.632 18.046 48.33 18.046 48.33 11.265 52.632 11.265 52.632 12.477"/>
    <polygon fill="#FFF" points="55.329 18.046 55.329 12.477 53.434 12.477 53.434 11.265 58.501 11.265 58.501 12.477 56.606 12.477 56.606 18.046"/>
    <polygon fill="#FFF" points="61.665 11.265 62.943 11.265 62.943 18.046 61.665 18.046"/>
    <polygon fill="#FFF" points="65.832 18.046 65.832 12.477 63.937 12.477 63.937 11.265 69.004 11.265 69.004 12.477 67.109 12.477 67.109 18.046"/>
    <path fill="#FFF" fill-rule="nonzero" d="M75.1901754,18.1978947 C74.7081884,18.2000176 74.2307612,18.1045322 73.7866667,17.917193 C72.9379995,17.5655923 72.265997,16.8880277 71.9214035,16.0364912 C71.561574,15.1465761 71.561574,14.1516695 71.9214035,13.2617544 C72.2664422,12.4108365 72.9383592,11.7338638 73.7866667,11.3824561 C74.6868005,11.0177505 75.6935504,11.0177505 76.5936842,11.3824561 C77.4420123,11.735788 78.1130007,12.4148668 78.4561404,13.2673684 C78.8159699,14.1572835 78.8159699,15.1521902 78.4561404,16.0421053 C78.1115469,16.8936418 77.4395444,17.5712064 76.5908772,17.922807 C76.1472414,18.1078135 75.6708291,18.2013774 75.1901754,18.1978947 Z M75.1901754,16.9852632 C75.4938045,16.9873774 75.7948309,16.9291758 76.0757895,16.8140351 C76.344265,16.704698 76.5888325,16.5440367 76.7957895,16.3410526 C77.0054376,16.132136 77.1697904,15.8822625 77.2785965,15.6070175 C77.5126775,14.9942249 77.5126775,14.3166523 77.2785965,13.7038596 C77.1696831,13.4286705 77.005344,13.1788176 76.7957895,12.9698246 C76.5876037,12.7643013 76.341062,12.6016888 76.0701754,12.4912281 C75.501636,12.2639644 74.8674868,12.2639644 74.2989474,12.4912281 C74.0304887,12.6005971 73.785927,12.7612546 73.5789474,12.9642105 C73.3692992,13.1731272 73.2049465,13.4230007 73.0961404,13.6982456 C72.8620593,14.3110383 72.8620593,14.9886108 73.0961404,15.6014035 C73.2048388,15.8767044 73.3692052,16.1265987 73.5789474,16.3354386 C73.7858589,16.5384789 74.0304382,16.699148 74.2989474,16.8084211 C74.581454,16.9252554 74.884469,16.9844269 75.1901754,16.9824561 L75.1901754,16.9852632 Z"/>
    <polygon fill="#FFF" points="79.85 11.265 81.338 11.265 84.07 15.811 84.146 15.811 84.07 14.504 84.07 11.265 85.333 11.265 85.333 18.046 83.989 18.046 81.109 13.245 81.033 13.245 81.109 14.552 81.109 18.046 79.846 18.046"/>
    <path fill="#FFF" d="M53.9354386 28.9698246C53.9354386 30.8561404 53.3740351 32.3705263 52.2512281 33.4905263 50.9805848 34.8238596 49.325848 35.4923977 47.2870175 35.4961404 45.337076 35.4961404 43.6795322 34.8205848 42.314386 33.4694737 40.9492398 32.1183626 40.2666667 30.4421053 40.2666667 28.4407018 40.2666667 26.4411696 40.9492398 24.7649123 42.314386 23.4119298 43.6264147 22.0799483 45.4289876 21.3469392 47.2982456 21.3852632 48.2518239 21.3806118 49.1962136 21.5716872 50.0729825 21.9466667 50.8865594 22.2767266 51.6107515 22.7941441 52.1866667 23.4568421L50.9978947 24.6470175C50.1043275 23.5775439 48.8711111 23.042807 47.2982456 23.042807 45.9169664 23.0262025 44.5873044 23.5670734 43.6098246 24.5431579 42.5721637 25.5433918 42.0528655 26.8421053 42.0519298 28.4392982 42.0509942 30.0364912 42.5702924 31.3356725 43.6098246 32.3368421 44.5870188 33.3136854 45.9166198 33.8555433 47.2982456 33.84 48.8084211 33.84 50.0659649 33.3473684 51.0722807 32.3396491 51.7263158 31.685614 52.1038596 30.7368421 52.2035088 29.6140351L47.2982456 29.6140351 47.2982456 27.9298246 53.84 27.9298246C53.8986385 28.2734799 53.930081 28.6212248 53.9340351 28.9698246M57.2842105 32.9992982C57.835511 33.5838809 58.6034822 33.9152439 59.4070175 33.9152439 60.2105529 33.9152439 60.978524 33.5838809 61.5298246 32.9992982 62.1277193 32.3892398 62.4266667 31.5812865 62.4266667 30.5754386 62.4266667 29.5695906 62.1277193 28.7611696 61.5298246 28.1501754 60.9781081 27.5663443 60.210292 27.2355118 59.4070175 27.2355118 58.603743 27.2355118 57.835927 27.5663443 57.2842105 28.1501754 56.6863158 28.7611696 56.3873684 29.5695906 56.3873684 30.5754386 56.3873684 31.5812865 56.6863158 32.3892398 57.2842105 32.9992982zM55.9915789 27.0554386C56.8851462 26.1197661 58.0233918 25.6519298 59.4063158 25.6519298 60.7892398 25.6519298 61.9279532 26.1197661 62.8224561 27.0554386 63.7160234 27.9911111 64.1623392 29.1639766 64.1614035 30.5740351 64.1604678 31.9840936 63.714152 33.1574269 62.8224561 34.0940351 61.9288889 35.0297076 60.7901754 35.4975439 59.4063158 35.4975439 58.0224561 35.4975439 56.8842105 35.0297076 55.9915789 34.0940351 55.0980117 33.1583626 54.6512281 31.9850292 54.6512281 30.5740351 54.6512281 29.1630409 55.0980117 27.9901754 55.9915789 27.0554386zM67.3810526 32.9992982C67.9323531 33.5838809 68.7003243 33.9152439 69.5038596 33.9152439 70.307395 33.9152439 71.0753662 33.5838809 71.6266667 32.9992982 72.2245614 32.3892398 72.5235088 31.5812865 72.5235088 30.5754386 72.5235088 29.5695906 72.2245614 28.7611696 71.6266667 28.1501754 71.0749502 27.5663443 70.3071341 27.2355118 69.5038596 27.2355118 68.7005852 27.2355118 67.9327691 27.5663443 67.3810526 28.1501754 66.7822222 28.7611696 66.4832749 29.5695906 66.4842105 30.5754386 66.4851462 31.5812865 66.7840936 32.3892398 67.3810526 32.9992982zM66.0884211 27.0554386C66.9819883 26.1197661 68.1207018 25.6519298 69.5045614 25.6519298 70.8884211 25.6519298 72.0266667 26.1197661 72.9192982 27.0554386 73.8128655 27.9911111 74.2591813 29.1639766 74.2582456 30.5740351 74.2573099 31.9840936 73.8109942 33.1574269 72.9192982 34.0940351 72.025731 35.0297076 70.8874854 35.4975439 69.5045614 35.4975439 68.1216374 35.4975439 66.982924 35.0297076 66.0884211 34.0940351 65.1948538 33.1583626 64.7480702 31.9850292 64.7480702 30.5740351 64.7480702 29.1630409 65.1948538 27.9901754 66.0884211 27.0554386zM79.5242105 33.9157895C80.3172793 33.9266964 81.0768425 33.5964959 81.6098246 33.0091228 82.1815205 32.405614 82.4678363 31.594386 82.4687719 30.5754386 82.4697076 29.5564912 82.1833918 28.7452632 81.6098246 28.1417544 81.0722851 27.5626828 80.3173889 27.2343335 79.5272813 27.2359324 78.7371736 27.2375313 77.9836125 27.5689331 77.4484211 28.1501754 76.8701754 28.7611696 76.5805848 29.5695906 76.5796491 30.5754386 76.5787135 31.5812865 76.8683041 32.3892398 77.4484211 32.9992982 77.9769121 33.5883284 78.7328702 33.9220948 79.5242105 33.9157895zM79.3922807 39.5761404C78.2966082 39.5761404 77.4030409 39.3024561 76.7115789 38.7550877 76.0669306 38.2639328 75.5566702 37.6180214 75.2280702 36.877193L76.8140351 36.2175439C76.9977635 36.7301732 77.3380174 37.1720614 77.7866667 37.4807018 78.255726 37.8200068 78.8218478 37.9987044 79.4007018 37.9901754 80.3564912 37.9901754 81.1368421 37.7094737 81.6842105 37.1312281 82.2315789 36.5529825 82.5263158 35.7894737 82.5263158 34.8070175L82.5263158 33.9649123 82.3859649 33.9649123C81.650117 34.9623714 80.4742454 35.5385223 79.2350877 35.5087719 78.0392982 35.5087719 77.0077193 35.0301754 76.1403509 34.0870175 75.2729825 33.1438596 74.8378947 31.9705263 74.8378947 30.5782456 74.8378947 29.1859649 75.2715789 28.0098246 76.1403509 27.0694737 77.0091228 26.1291228 78.0407018 25.6533333 79.2350877 25.6533333 80.4811178 25.625113 81.6605619 26.2145724 82.3859649 27.2280702L82.5263158 27.2280702 82.5263158 25.9649123 84.0701754 25.9649123 84.0701754 34.7270175C84.0701754 36.3115789 83.6407018 37.5157895 82.722807 38.3410526 81.8049123 39.1663158 80.714386 39.5761404 79.3936842 39.5761404L79.3922807 39.5761404z"/>
    <rect width="1.684" height="13.474" x="85.754" y="21.754" fill="#FFF"/>
    <path fill="#FFF" d="M95.7347368 29.4736842C95.6968421 28.9122807 95.4540351 28.4364912 95.0077193 27.9578947 94.5614035 27.4792982 93.8975439 27.2378947 93.0161404 27.2378947 92.4041358 27.2287111 91.8101456 27.4450255 91.3473684 27.845614 90.8564604 28.2695431 90.5153665 28.840494 90.3747368 29.4736842L95.7347368 29.4736842zM93.2435088 35.5003509C91.8465497 35.5003509 90.7111111 35.0325146 89.837193 34.0968421 88.9632749 33.1611696 88.525848 31.9850292 88.5249123 30.5684211 88.4991012 29.2916904 88.9539533 28.0518676 89.7992982 27.0947368 90.6105435 26.147463 91.8059117 25.6168186 93.0526316 25.6505263 94.4243275 25.6505263 95.5218713 26.0973099 96.3452632 26.9908772 97.1691228 27.8835088 97.5817544 29.0694737 97.5817544 30.5670175L97.5635088 30.8785965 90.2652632 30.8785965C90.314386 31.8610526 90.6259649 32.554386 91.1985965 33.0947368 91.7340025 33.622321 92.4567666 33.9160701 93.2084211 33.9115789 94.4538012 33.9115789 95.2959064 33.3838596 95.7347368 32.3284211L97.2785965 32.9712281C96.9652761 33.7030726 96.4478115 34.3291951 95.7880702 34.7747368 95.0966082 35.2584795 94.2474854 35.5008187 93.2407018 35.5017544L93.2435088 35.5003509zM104.421053 28.0701754L107.320702 28.0701754C107.986024 28.0963558 108.628659 27.8259351 109.075088 27.3319298 109.493865 26.8937987 109.730211 26.3127176 109.73614 25.7066667 109.730858 25.0938357 109.494823 24.5055029 109.075088 24.0589474 108.631337 23.5587248 107.989143 23.2802697 107.320702 23.2982456L104.421053 23.2982456 104.421053 28.0701754zM104.421053 35.2280702L102.736842 35.2280702 102.736842 21.754386 107.282807 21.754386C108.379592 21.7252692 109.445014 22.1221613 110.255439 22.8617544 111.076189 23.5826705 111.535614 24.6299952 111.510175 25.7221053 111.536706 26.8213017 111.077709 27.8763785 110.255439 28.6063158 109.449548 29.3578028 108.384613 29.7690949 107.282807 29.754386L104.421053 29.754386 104.421053 35.2280702z"/>
    <rect width="1.684" height="13.474" x="112.702" y="21.754" fill="#FFF"/>
    <path fill="#FFF" d="M119.134035,33.9157895 C119.864418,33.9101114 120.564369,33.6224876 121.087719,33.1129825 C121.644442,32.6404679 121.965229,31.9470544 121.964912,31.2168421 C121.475556,30.8145029 120.740117,30.6133333 119.758596,30.6133333 C118.916491,30.6133333 118.28117,30.7953216 117.852632,31.1592982 C117.453637,31.4667117 117.217322,31.9398595 117.211228,32.4435088 C117.202239,32.8802103 117.424839,33.2891112 117.796491,33.5185965 C118.19145,33.7841951 118.65813,33.922779 119.134035,33.9157895 Z M118.853333,35.525614 C117.954751,35.5505161 117.078446,35.2437594 116.391579,34.6638596 C115.730526,34.1024561 115.400702,33.3431579 115.400702,32.4182456 C115.400702,31.4119298 115.789474,30.6189474 116.571228,30.0463158 C117.352982,29.4736842 118.312982,29.1859649 119.458246,29.1859649 C120.477193,29.1859649 121.265965,29.3726316 121.967719,29.7473684 L121.967719,29.4736842 C121.991453,28.8516918 121.73368,28.2521111 121.265965,27.8414035 C120.790121,27.4295786 120.177112,27.2112194 119.54807,27.2294737 C119.06803,27.223419 118.595258,27.3470671 118.179649,27.5873684 C117.789907,27.8028957 117.490928,28.1517046 117.337544,28.5698246 L115.751579,27.8905263 C115.965848,27.3375439 116.386901,26.822924 117.014737,26.3466667 C117.642573,25.8704094 118.472982,25.6364912 119.505965,25.6449123 C120.687719,25.6449123 121.681404,25.9901754 122.461754,26.6821053 C123.242105,27.3740351 123.649123,28.3508772 123.649123,29.6140351 L123.649123,35.2280702 L121.964912,35.2280702 L121.964912,33.9649123 L121.889123,33.9649123 C121.209465,34.9701679 120.063529,35.5587501 118.850526,35.525614 L118.853333,35.525614 Z"/>
    <polyline fill="#FFF" points="127.439 39.298 125.607 39.298 127.759 34.632 123.947 25.965 125.834 25.965 128.589 32.561 128.626 32.561 131.307 25.965 133.193 25.965 127.401 39.298"/>
  </g>
</svg>
